#N canvas 144 119 943 476 12;
#X obj 495 123 soundfiler;
#X floatatom 495 146 5 0 0 0 - - - 0;
#X obj 495 199 phasor~;
#X obj 495 224 *~;
#X obj 546 341 dac~;
#X obj 495 172 expr 44100/$f1;
#X msg 607 172 0;
#X obj 495 278 *~;
#X floatatom 237 410 5 0 0 0 - - - 0;
#X floatatom 366 374 5 0 0 0 - - - 0;
#X obj 238 384 - 0.15;
#X obj 317 402 expr pow($f1 \, 0.5);
#X floatatom 317 428 5 0 0 0 - - - 0;
#X obj 317 374 / 0.3;
#X obj 317 346 expr if($f1<0.3 \, $f1 \, 0.3);
#X obj 43 193 f;
#X msg 106 97 1;
#X obj 106 123 tgl 15 0 empty empty empty 17 7 0 10 #fcfcfc #000000 #000000 0 1;
#X obj 75 243 f;
#X obj 43 267 -;
#X obj 43 217 t f b;
#X floatatom 91 217 5 0 0 0 - - - 0;
#X floatatom 238 360 5 0 0 0 - - - 0;
#X obj 43 292 abs;
#X obj 43 374 * 0.55;
#X obj 43 400 + 0.15;
#X obj 106 143 metro 100;
#X msg 106 168 150;
#X obj 43 323 expr if($f1<$f2 \, $f1 \, $f2);
#X obj 43 349 /;
#X obj 198 162 f;
#X obj 177 38 loadbang;
#X msg 198 91 1;
#X obj 198 116 tgl 15 0 empty empty empty 17 7 0 10 #fcfcfc #000000 #000000 0 1;
#X floatatom 198 243 5 0 0 0 - - - 0;
#X obj 206 216 f;
#X obj 198 188 t f b;
#X floatatom 247 242 5 0 0 0 - - - 0;
#X obj 257 216 f;
#X obj 247 188 t f b;
#X floatatom 294 242 5 0 0 0 - - - 0;
#X obj 301 215 f;
#X obj 294 188 t f b;
#X floatatom 340 242 5 0 0 0 - - - 0;
#X obj 349 214 f;
#X obj 340 187 t f b;
#X floatatom 385 241 5 0 0 0 - - - 0;
#X obj 393 213 f;
#X obj 385 186 t f b;
#X floatatom 428 241 5 0 0 0 - - - 0;
#X obj 428 186 t f b;
#X obj 198 270 +;
#X obj 294 268 +;
#X obj 385 266 +;
#X obj 232 284 +;
#X obj 238 308 +;
#X obj 238 334 / 6;
#X obj 198 138 metro 50;
#X floatatom 43 424 5 0 0 0 - - - 0;
#X obj 15 77 + 2;
#X obj 15 103 * 100;
#N canvas 0 50 450 250 (subpatch) 0;
#X array \$0-soundData 88386 float 2;
#X coords 0 1 88386 -1 200 140 1 0 0;
#X restore 655 297 graph;
#X obj 15 27 inlet;
#X obj 495 32 inlet;
#X text 363 430 Controls the amplitude/volume;
#X text 14 4 Sonified data inlet;
#X obj 495 251 tabread4~ \$0-soundData;
#X obj 548 45 f \$0;
#X msg 495 98 read -resize \$1 \$2-soundData;
#X text 492 12 Grain input inlet;
#X obj 494 312 throw~ l;
#X obj 562 312 throw~ r;
#X obj 495 71 pack s f;
#X text 636 172 emergency stop;
#X connect 0 0 1 0;
#X connect 1 0 5 0;
#X connect 1 0 3 1;
#X connect 2 0 3 0;
#X connect 3 0 66 0;
#X connect 5 0 2 0;
#X connect 6 0 2 0;
#X connect 7 0 70 0;
#X connect 7 0 71 0;
#X connect 10 0 8 0;
#X connect 10 0 14 0;
#X connect 11 0 7 1;
#X connect 11 0 12 0;
#X connect 13 0 11 0;
#X connect 14 0 9 0;
#X connect 14 0 13 0;
#X connect 15 0 20 0;
#X connect 15 0 21 0;
#X connect 16 0 17 0;
#X connect 17 0 26 0;
#X connect 18 0 19 1;
#X connect 19 0 23 0;
#X connect 20 0 19 0;
#X connect 20 0 18 1;
#X connect 20 1 18 0;
#X connect 22 0 10 0;
#X connect 22 0 2 0;
#X connect 23 0 28 0;
#X connect 24 0 25 0;
#X connect 25 0 58 0;
#X connect 26 0 15 0;
#X connect 26 0 27 0;
#X connect 27 0 29 1;
#X connect 27 0 28 1;
#X connect 28 0 29 0;
#X connect 29 0 24 0;
#X connect 30 0 36 0;
#X connect 31 0 32 0;
#X connect 31 0 16 0;
#X connect 31 0 67 0;
#X connect 32 0 33 0;
#X connect 33 0 57 0;
#X connect 34 0 51 0;
#X connect 35 0 39 0;
#X connect 36 0 35 1;
#X connect 36 0 34 0;
#X connect 36 1 35 0;
#X connect 37 0 51 1;
#X connect 38 0 42 0;
#X connect 39 0 38 1;
#X connect 39 0 37 0;
#X connect 39 1 38 0;
#X connect 40 0 52 0;
#X connect 41 0 45 0;
#X connect 42 0 41 1;
#X connect 42 0 40 0;
#X connect 42 1 41 0;
#X connect 43 0 52 1;
#X connect 44 0 48 0;
#X connect 45 0 44 1;
#X connect 45 0 43 0;
#X connect 45 1 44 0;
#X connect 46 0 53 0;
#X connect 47 0 50 0;
#X connect 48 0 47 1;
#X connect 48 0 46 0;
#X connect 48 1 47 0;
#X connect 49 0 53 1;
#X connect 50 0 49 0;
#X connect 51 0 54 0;
#X connect 52 0 54 1;
#X connect 53 0 55 1;
#X connect 54 0 55 0;
#X connect 55 0 56 0;
#X connect 56 0 22 0;
#X connect 57 0 30 0;
#X connect 58 0 30 1;
#X connect 59 0 60 0;
#X connect 60 0 15 1;
#X connect 62 0 59 0;
#X connect 63 0 72 0;
#X connect 66 0 7 0;
#X connect 67 0 72 1;
#X connect 68 0 0 0;
#X connect 72 0 68 0;
