#N canvas 428 126 956 616 12;
#X obj 15 87 catch~ l;
#X obj 84 87 catch~ r;
#X obj 44 120 dac~;
#X msg 172 91 \; pd dsp 1;
#X msg 253 90 \; pd dsp 0;
#X text 340 97 Catch output signals;
#X obj 15 13 OSCReceiver;
#X text 118 7 Receives OSC signals from PepperOSC;
#X text 118 23 See inside to find the joint names;
#X obj 18 273 r RShoulderRoll;
#X text 12 52 ----------;
#X text 14 156 ----------;
#X obj 18 301 JointSonify 1;
#X obj 18 362 JointSonify 2;
#X obj 18 334 r LShoulderRoll;
#X obj 20 397 r RElbowRoll;
#X obj 19 459 r LElbowRoll;
#X obj 19 426 JointSonify 3;
#X obj 19 487 JointSonify 4;
#X text 16 182 Data sonification;
#X text 16 200 Duplicate the abstraction as needed;
#X text 16 219 Left input is the data \, right input is the grain audio files;
#X obj 160 239 loadbang;
#X msg 135 273 symbol heating.wav;
#X msg 135 334 symbol heating.wav;
#X msg 136 398 symbol rain2.wav;
#X msg 136 459 symbol rain2.wav;
#X connect 0 0 2 0;
#X connect 1 0 2 1;
#X connect 9 0 12 0;
#X connect 14 0 13 0;
#X connect 15 0 17 0;
#X connect 16 0 18 0;
#X connect 22 0 23 0;
#X connect 22 0 24 0;
#X connect 22 0 25 0;
#X connect 22 0 26 0;
#X connect 23 0 12 1;
#X connect 24 0 13 1;
#X connect 25 0 17 1;
#X connect 26 0 18 1;
