#N canvas 247 84 769 568 12;
#X obj 5 30 oscparse;
#X obj 5 53 list trim;
#X obj 468 82 route /latency;
#X obj 468 106 s latency;
#X obj 5 77 route pepperdata;
#X obj 467 33 route soundstart;
#X obj 586 33 route soundstop;
#X obj 5 6 netreceive -u -b 3005;
#X obj 467 56 s soundstart;
#X obj 586 55 s soundstop;
#X obj 466 7 bng 15 250 50 0 empty empty empty 17 7 0 10 #fcfcfc #000000 #000000;
#X obj 586 7 bng 15 250 50 0 empty empty empty 17 7 0 10 #fcfcfc #000000 #000000;
#X obj 200 85 route /HeadPitch;
#N canvas 609 127 954 800 datatype 0;
#X obj 7 6 inlet;
#X obj 7 30 route /PositionSensor;
#X floatatom 31 55 5 0 0 0 - - - 0;
#N canvas 1106 405 450 507 latencyline 0;
#X obj 18 114 line;
#X obj 18 40 t f b;
#X floatatom 50 87 5 0 0 0 - - - 0;
#X obj 66 60 * 1000;
#X floatatom 32 140 5 0 0 0 - - - 0;
#X obj 18 13 inlet;
#X obj 66 36 r latency;
#X obj 18 160 outlet;
#X connect 0 0 4 0;
#X connect 0 0 7 0;
#X connect 1 0 0 0;
#X connect 1 1 2 0;
#X connect 2 0 0 1;
#X connect 3 0 2 0;
#X connect 5 0 1 0;
#X connect 6 0 3 0;
#X restore 31 77 pd latencyline;
#X floatatom 30 149 5 0 0 0 - - - 0;
#N canvas 1106 405 450 507 latencyline 0;
#X obj 18 114 line;
#X obj 18 40 t f b;
#X floatatom 50 87 5 0 0 0 - - - 0;
#X obj 66 60 * 1000;
#X floatatom 32 140 5 0 0 0 - - - 0;
#X obj 18 13 inlet;
#X obj 66 36 r latency;
#X obj 18 160 outlet;
#X connect 0 0 4 0;
#X connect 0 0 7 0;
#X connect 1 0 0 0;
#X connect 1 1 2 0;
#X connect 2 0 0 1;
#X connect 3 0 2 0;
#X connect 5 0 1 0;
#X connect 6 0 3 0;
#X restore 30 171 pd latencyline;
#X obj 6 124 route /ElectricCurrent;
#X floatatom 228 54 5 0 0 0 - - - 0;
#N canvas 1106 405 450 507 latencyline 0;
#X obj 18 114 line;
#X obj 18 40 t f b;
#X floatatom 50 87 5 0 0 0 - - - 0;
#X obj 66 60 * 1000;
#X floatatom 32 140 5 0 0 0 - - - 0;
#X obj 18 13 inlet;
#X obj 66 36 r latency;
#X obj 18 160 outlet;
#X connect 0 0 4 0;
#X connect 0 0 7 0;
#X connect 1 0 0 0;
#X connect 1 1 2 0;
#X connect 2 0 0 1;
#X connect 3 0 2 0;
#X connect 5 0 1 0;
#X connect 6 0 3 0;
#X restore 228 76 pd latencyline;
#X floatatom 228 148 5 0 0 0 - - - 0;
#N canvas 1106 405 450 507 latencyline 0;
#X obj 18 114 line;
#X obj 18 40 t f b;
#X floatatom 50 87 5 0 0 0 - - - 0;
#X obj 66 60 * 1000;
#X floatatom 32 140 5 0 0 0 - - - 0;
#X obj 18 13 inlet;
#X obj 66 36 r latency;
#X obj 18 160 outlet;
#X connect 0 0 4 0;
#X connect 0 0 7 0;
#X connect 1 0 0 0;
#X connect 1 1 2 0;
#X connect 2 0 0 1;
#X connect 3 0 2 0;
#X connect 5 0 1 0;
#X connect 6 0 3 0;
#X restore 228 170 pd latencyline;
#X obj 204 29 route /TemperatureValue;
#X obj 204 123 route /Hardness;
#X obj 29 242 outlet;
#X obj 83 242 outlet;
#X obj 138 242 outlet;
#X obj 192 242 outlet;
#X connect 0 0 1 0;
#X connect 0 0 6 0;
#X connect 0 0 11 0;
#X connect 0 0 12 0;
#X connect 1 0 2 0;
#X connect 1 0 3 0;
#X connect 3 0 13 0;
#X connect 5 0 14 0;
#X connect 6 0 4 0;
#X connect 6 0 5 0;
#X connect 8 0 15 0;
#X connect 10 0 16 0;
#X connect 11 0 7 0;
#X connect 11 0 8 0;
#X connect 12 0 9 0;
#X connect 12 0 10 0;
#X restore 200 110 pd datatype;
#N canvas 609 127 954 800 datatype 0;
#X obj 7 6 inlet;
#X obj 7 30 route /PositionSensor;
#X floatatom 31 55 5 0 0 0 - - - 0;
#N canvas 1106 405 450 507 latencyline 0;
#X obj 18 114 line;
#X obj 18 40 t f b;
#X floatatom 50 87 5 0 0 0 - - - 0;
#X obj 66 60 * 1000;
#X floatatom 32 140 5 0 0 0 - - - 0;
#X obj 18 13 inlet;
#X obj 66 36 r latency;
#X obj 18 160 outlet;
#X connect 0 0 4 0;
#X connect 0 0 7 0;
#X connect 1 0 0 0;
#X connect 1 1 2 0;
#X connect 2 0 0 1;
#X connect 3 0 2 0;
#X connect 5 0 1 0;
#X connect 6 0 3 0;
#X restore 31 77 pd latencyline;
#X floatatom 30 149 5 0 0 0 - - - 0;
#N canvas 1106 405 450 507 latencyline 0;
#X obj 18 114 line;
#X obj 18 40 t f b;
#X floatatom 50 87 5 0 0 0 - - - 0;
#X obj 66 60 * 1000;
#X floatatom 32 140 5 0 0 0 - - - 0;
#X obj 18 13 inlet;
#X obj 66 36 r latency;
#X obj 18 160 outlet;
#X connect 0 0 4 0;
#X connect 0 0 7 0;
#X connect 1 0 0 0;
#X connect 1 1 2 0;
#X connect 2 0 0 1;
#X connect 3 0 2 0;
#X connect 5 0 1 0;
#X connect 6 0 3 0;
#X restore 30 171 pd latencyline;
#X obj 6 124 route /ElectricCurrent;
#X floatatom 228 54 5 0 0 0 - - - 0;
#N canvas 1106 405 450 507 latencyline 0;
#X obj 18 114 line;
#X obj 18 40 t f b;
#X floatatom 50 87 5 0 0 0 - - - 0;
#X obj 66 60 * 1000;
#X floatatom 32 140 5 0 0 0 - - - 0;
#X obj 18 13 inlet;
#X obj 66 36 r latency;
#X obj 18 160 outlet;
#X connect 0 0 4 0;
#X connect 0 0 7 0;
#X connect 1 0 0 0;
#X connect 1 1 2 0;
#X connect 2 0 0 1;
#X connect 3 0 2 0;
#X connect 5 0 1 0;
#X connect 6 0 3 0;
#X restore 228 76 pd latencyline;
#X floatatom 228 148 5 0 0 0 - - - 0;
#N canvas 1106 405 450 507 latencyline 0;
#X obj 18 114 line;
#X obj 18 40 t f b;
#X floatatom 50 87 5 0 0 0 - - - 0;
#X obj 66 60 * 1000;
#X floatatom 32 140 5 0 0 0 - - - 0;
#X obj 18 13 inlet;
#X obj 66 36 r latency;
#X obj 18 160 outlet;
#X connect 0 0 4 0;
#X connect 0 0 7 0;
#X connect 1 0 0 0;
#X connect 1 1 2 0;
#X connect 2 0 0 1;
#X connect 3 0 2 0;
#X connect 5 0 1 0;
#X connect 6 0 3 0;
#X restore 228 170 pd latencyline;
#X obj 204 29 route /TemperatureValue;
#X obj 204 123 route /Hardness;
#X obj 29 242 outlet;
#X obj 83 242 outlet;
#X obj 138 242 outlet;
#X obj 192 242 outlet;
#X connect 0 0 1 0;
#X connect 0 0 6 0;
#X connect 0 0 11 0;
#X connect 0 0 12 0;
#X connect 1 0 2 0;
#X connect 1 0 3 0;
#X connect 3 0 13 0;
#X connect 5 0 14 0;
#X connect 6 0 4 0;
#X connect 6 0 5 0;
#X connect 8 0 15 0;
#X connect 10 0 16 0;
#X connect 11 0 7 0;
#X connect 11 0 8 0;
#X connect 12 0 9 0;
#X connect 12 0 10 0;
#X restore 322 110 pd datatype;
#X obj 322 85 route /HeadYaw;
#N canvas 609 127 954 800 datatype 0;
#X obj 7 6 inlet;
#X obj 7 30 route /PositionSensor;
#X floatatom 31 55 5 0 0 0 - - - 0;
#N canvas 1106 405 450 507 latencyline 0;
#X obj 18 114 line;
#X obj 18 40 t f b;
#X floatatom 50 87 5 0 0 0 - - - 0;
#X obj 66 60 * 1000;
#X floatatom 32 140 5 0 0 0 - - - 0;
#X obj 18 13 inlet;
#X obj 66 36 r latency;
#X obj 18 160 outlet;
#X connect 0 0 4 0;
#X connect 0 0 7 0;
#X connect 1 0 0 0;
#X connect 1 1 2 0;
#X connect 2 0 0 1;
#X connect 3 0 2 0;
#X connect 5 0 1 0;
#X connect 6 0 3 0;
#X restore 31 77 pd latencyline;
#X floatatom 30 149 5 0 0 0 - - - 0;
#N canvas 1106 405 450 507 latencyline 0;
#X obj 18 114 line;
#X obj 18 40 t f b;
#X floatatom 50 87 5 0 0 0 - - - 0;
#X obj 66 60 * 1000;
#X floatatom 32 140 5 0 0 0 - - - 0;
#X obj 18 13 inlet;
#X obj 66 36 r latency;
#X obj 18 160 outlet;
#X connect 0 0 4 0;
#X connect 0 0 7 0;
#X connect 1 0 0 0;
#X connect 1 1 2 0;
#X connect 2 0 0 1;
#X connect 3 0 2 0;
#X connect 5 0 1 0;
#X connect 6 0 3 0;
#X restore 30 171 pd latencyline;
#X obj 6 124 route /ElectricCurrent;
#X floatatom 228 54 5 0 0 0 - - - 0;
#N canvas 1106 405 450 507 latencyline 0;
#X obj 18 114 line;
#X obj 18 40 t f b;
#X floatatom 50 87 5 0 0 0 - - - 0;
#X obj 66 60 * 1000;
#X floatatom 32 140 5 0 0 0 - - - 0;
#X obj 18 13 inlet;
#X obj 66 36 r latency;
#X obj 18 160 outlet;
#X connect 0 0 4 0;
#X connect 0 0 7 0;
#X connect 1 0 0 0;
#X connect 1 1 2 0;
#X connect 2 0 0 1;
#X connect 3 0 2 0;
#X connect 5 0 1 0;
#X connect 6 0 3 0;
#X restore 228 76 pd latencyline;
#X floatatom 228 148 5 0 0 0 - - - 0;
#N canvas 1106 405 450 507 latencyline 0;
#X obj 18 114 line;
#X obj 18 40 t f b;
#X floatatom 50 87 5 0 0 0 - - - 0;
#X obj 66 60 * 1000;
#X floatatom 32 140 5 0 0 0 - - - 0;
#X obj 18 13 inlet;
#X obj 66 36 r latency;
#X obj 18 160 outlet;
#X connect 0 0 4 0;
#X connect 0 0 7 0;
#X connect 1 0 0 0;
#X connect 1 1 2 0;
#X connect 2 0 0 1;
#X connect 3 0 2 0;
#X connect 5 0 1 0;
#X connect 6 0 3 0;
#X restore 228 170 pd latencyline;
#X obj 204 29 route /TemperatureValue;
#X obj 204 123 route /Hardness;
#X obj 29 242 outlet;
#X obj 83 242 outlet;
#X obj 138 242 outlet;
#X obj 192 242 outlet;
#X connect 0 0 1 0;
#X connect 0 0 6 0;
#X connect 0 0 11 0;
#X connect 0 0 12 0;
#X connect 1 0 2 0;
#X connect 1 0 3 0;
#X connect 3 0 13 0;
#X connect 5 0 14 0;
#X connect 6 0 4 0;
#X connect 6 0 5 0;
#X connect 8 0 15 0;
#X connect 10 0 16 0;
#X connect 11 0 7 0;
#X connect 11 0 8 0;
#X connect 12 0 9 0;
#X connect 12 0 10 0;
#X restore 6 238 pd datatype;
#N canvas 609 127 954 800 datatype 0;
#X obj 7 6 inlet;
#X obj 7 30 route /PositionSensor;
#X floatatom 31 55 5 0 0 0 - - - 0;
#N canvas 1106 405 450 507 latencyline 0;
#X obj 18 114 line;
#X obj 18 40 t f b;
#X floatatom 50 87 5 0 0 0 - - - 0;
#X obj 66 60 * 1000;
#X floatatom 32 140 5 0 0 0 - - - 0;
#X obj 18 13 inlet;
#X obj 66 36 r latency;
#X obj 18 160 outlet;
#X connect 0 0 4 0;
#X connect 0 0 7 0;
#X connect 1 0 0 0;
#X connect 1 1 2 0;
#X connect 2 0 0 1;
#X connect 3 0 2 0;
#X connect 5 0 1 0;
#X connect 6 0 3 0;
#X restore 31 77 pd latencyline;
#X floatatom 30 149 5 0 0 0 - - - 0;
#N canvas 1106 405 450 507 latencyline 0;
#X obj 18 114 line;
#X obj 18 40 t f b;
#X floatatom 50 87 5 0 0 0 - - - 0;
#X obj 66 60 * 1000;
#X floatatom 32 140 5 0 0 0 - - - 0;
#X obj 18 13 inlet;
#X obj 66 36 r latency;
#X obj 18 160 outlet;
#X connect 0 0 4 0;
#X connect 0 0 7 0;
#X connect 1 0 0 0;
#X connect 1 1 2 0;
#X connect 2 0 0 1;
#X connect 3 0 2 0;
#X connect 5 0 1 0;
#X connect 6 0 3 0;
#X restore 30 171 pd latencyline;
#X obj 6 124 route /ElectricCurrent;
#X floatatom 228 54 5 0 0 0 - - - 0;
#N canvas 1106 405 450 507 latencyline 0;
#X obj 18 114 line;
#X obj 18 40 t f b;
#X floatatom 50 87 5 0 0 0 - - - 0;
#X obj 66 60 * 1000;
#X floatatom 32 140 5 0 0 0 - - - 0;
#X obj 18 13 inlet;
#X obj 66 36 r latency;
#X obj 18 160 outlet;
#X connect 0 0 4 0;
#X connect 0 0 7 0;
#X connect 1 0 0 0;
#X connect 1 1 2 0;
#X connect 2 0 0 1;
#X connect 3 0 2 0;
#X connect 5 0 1 0;
#X connect 6 0 3 0;
#X restore 228 76 pd latencyline;
#X floatatom 228 148 5 0 0 0 - - - 0;
#N canvas 1106 405 450 507 latencyline 0;
#X obj 18 114 line;
#X obj 18 40 t f b;
#X floatatom 50 87 5 0 0 0 - - - 0;
#X obj 66 60 * 1000;
#X floatatom 32 140 5 0 0 0 - - - 0;
#X obj 18 13 inlet;
#X obj 66 36 r latency;
#X obj 18 160 outlet;
#X connect 0 0 4 0;
#X connect 0 0 7 0;
#X connect 1 0 0 0;
#X connect 1 1 2 0;
#X connect 2 0 0 1;
#X connect 3 0 2 0;
#X connect 5 0 1 0;
#X connect 6 0 3 0;
#X restore 228 170 pd latencyline;
#X obj 204 29 route /TemperatureValue;
#X obj 204 123 route /Hardness;
#X obj 29 242 outlet;
#X obj 83 242 outlet;
#X obj 138 242 outlet;
#X obj 192 242 outlet;
#X connect 0 0 1 0;
#X connect 0 0 6 0;
#X connect 0 0 11 0;
#X connect 0 0 12 0;
#X connect 1 0 2 0;
#X connect 1 0 3 0;
#X connect 3 0 13 0;
#X connect 5 0 14 0;
#X connect 6 0 4 0;
#X connect 6 0 5 0;
#X connect 8 0 15 0;
#X connect 10 0 16 0;
#X connect 11 0 7 0;
#X connect 11 0 8 0;
#X connect 12 0 9 0;
#X connect 12 0 10 0;
#X restore 156 238 pd datatype;
#X obj 6 213 route /RShoulderRoll;
#X obj 156 213 route /RShoulderPitch;
#N canvas 609 127 954 800 datatype 0;
#X obj 7 6 inlet;
#X obj 7 30 route /PositionSensor;
#X floatatom 31 55 5 0 0 0 - - - 0;
#N canvas 1106 405 450 507 latencyline 0;
#X obj 18 114 line;
#X obj 18 40 t f b;
#X floatatom 50 87 5 0 0 0 - - - 0;
#X obj 66 60 * 1000;
#X floatatom 32 140 5 0 0 0 - - - 0;
#X obj 18 13 inlet;
#X obj 66 36 r latency;
#X obj 18 160 outlet;
#X connect 0 0 4 0;
#X connect 0 0 7 0;
#X connect 1 0 0 0;
#X connect 1 1 2 0;
#X connect 2 0 0 1;
#X connect 3 0 2 0;
#X connect 5 0 1 0;
#X connect 6 0 3 0;
#X restore 31 77 pd latencyline;
#X floatatom 30 149 5 0 0 0 - - - 0;
#N canvas 1106 405 450 507 latencyline 0;
#X obj 18 114 line;
#X obj 18 40 t f b;
#X floatatom 50 87 5 0 0 0 - - - 0;
#X obj 66 60 * 1000;
#X floatatom 32 140 5 0 0 0 - - - 0;
#X obj 18 13 inlet;
#X obj 66 36 r latency;
#X obj 18 160 outlet;
#X connect 0 0 4 0;
#X connect 0 0 7 0;
#X connect 1 0 0 0;
#X connect 1 1 2 0;
#X connect 2 0 0 1;
#X connect 3 0 2 0;
#X connect 5 0 1 0;
#X connect 6 0 3 0;
#X restore 30 171 pd latencyline;
#X obj 6 124 route /ElectricCurrent;
#X floatatom 228 54 5 0 0 0 - - - 0;
#N canvas 1106 405 450 507 latencyline 0;
#X obj 18 114 line;
#X obj 18 40 t f b;
#X floatatom 50 87 5 0 0 0 - - - 0;
#X obj 66 60 * 1000;
#X floatatom 32 140 5 0 0 0 - - - 0;
#X obj 18 13 inlet;
#X obj 66 36 r latency;
#X obj 18 160 outlet;
#X connect 0 0 4 0;
#X connect 0 0 7 0;
#X connect 1 0 0 0;
#X connect 1 1 2 0;
#X connect 2 0 0 1;
#X connect 3 0 2 0;
#X connect 5 0 1 0;
#X connect 6 0 3 0;
#X restore 228 76 pd latencyline;
#X floatatom 228 148 5 0 0 0 - - - 0;
#N canvas 1106 405 450 507 latencyline 0;
#X obj 18 114 line;
#X obj 18 40 t f b;
#X floatatom 50 87 5 0 0 0 - - - 0;
#X obj 66 60 * 1000;
#X floatatom 32 140 5 0 0 0 - - - 0;
#X obj 18 13 inlet;
#X obj 66 36 r latency;
#X obj 18 160 outlet;
#X connect 0 0 4 0;
#X connect 0 0 7 0;
#X connect 1 0 0 0;
#X connect 1 1 2 0;
#X connect 2 0 0 1;
#X connect 3 0 2 0;
#X connect 5 0 1 0;
#X connect 6 0 3 0;
#X restore 228 170 pd latencyline;
#X obj 204 29 route /TemperatureValue;
#X obj 204 123 route /Hardness;
#X obj 29 242 outlet;
#X obj 83 242 outlet;
#X obj 138 242 outlet;
#X obj 192 242 outlet;
#X connect 0 0 1 0;
#X connect 0 0 6 0;
#X connect 0 0 11 0;
#X connect 0 0 12 0;
#X connect 1 0 2 0;
#X connect 1 0 3 0;
#X connect 3 0 13 0;
#X connect 5 0 14 0;
#X connect 6 0 4 0;
#X connect 6 0 5 0;
#X connect 8 0 15 0;
#X connect 10 0 16 0;
#X connect 11 0 7 0;
#X connect 11 0 8 0;
#X connect 12 0 9 0;
#X connect 12 0 10 0;
#X restore 311 238 pd datatype;
#N canvas 609 127 954 800 datatype 0;
#X obj 7 6 inlet;
#X obj 7 30 route /PositionSensor;
#X floatatom 31 55 5 0 0 0 - - - 0;
#N canvas 1106 405 450 507 latencyline 0;
#X obj 18 114 line;
#X obj 18 40 t f b;
#X floatatom 50 87 5 0 0 0 - - - 0;
#X obj 66 60 * 1000;
#X floatatom 32 140 5 0 0 0 - - - 0;
#X obj 18 13 inlet;
#X obj 66 36 r latency;
#X obj 18 160 outlet;
#X connect 0 0 4 0;
#X connect 0 0 7 0;
#X connect 1 0 0 0;
#X connect 1 1 2 0;
#X connect 2 0 0 1;
#X connect 3 0 2 0;
#X connect 5 0 1 0;
#X connect 6 0 3 0;
#X restore 31 77 pd latencyline;
#X floatatom 30 149 5 0 0 0 - - - 0;
#N canvas 1106 405 450 507 latencyline 0;
#X obj 18 114 line;
#X obj 18 40 t f b;
#X floatatom 50 87 5 0 0 0 - - - 0;
#X obj 66 60 * 1000;
#X floatatom 32 140 5 0 0 0 - - - 0;
#X obj 18 13 inlet;
#X obj 66 36 r latency;
#X obj 18 160 outlet;
#X connect 0 0 4 0;
#X connect 0 0 7 0;
#X connect 1 0 0 0;
#X connect 1 1 2 0;
#X connect 2 0 0 1;
#X connect 3 0 2 0;
#X connect 5 0 1 0;
#X connect 6 0 3 0;
#X restore 30 171 pd latencyline;
#X obj 6 124 route /ElectricCurrent;
#X floatatom 228 54 5 0 0 0 - - - 0;
#N canvas 1106 405 450 507 latencyline 0;
#X obj 18 114 line;
#X obj 18 40 t f b;
#X floatatom 50 87 5 0 0 0 - - - 0;
#X obj 66 60 * 1000;
#X floatatom 32 140 5 0 0 0 - - - 0;
#X obj 18 13 inlet;
#X obj 66 36 r latency;
#X obj 18 160 outlet;
#X connect 0 0 4 0;
#X connect 0 0 7 0;
#X connect 1 0 0 0;
#X connect 1 1 2 0;
#X connect 2 0 0 1;
#X connect 3 0 2 0;
#X connect 5 0 1 0;
#X connect 6 0 3 0;
#X restore 228 76 pd latencyline;
#X floatatom 228 148 5 0 0 0 - - - 0;
#N canvas 1106 405 450 507 latencyline 0;
#X obj 18 114 line;
#X obj 18 40 t f b;
#X floatatom 50 87 5 0 0 0 - - - 0;
#X obj 66 60 * 1000;
#X floatatom 32 140 5 0 0 0 - - - 0;
#X obj 18 13 inlet;
#X obj 66 36 r latency;
#X obj 18 160 outlet;
#X connect 0 0 4 0;
#X connect 0 0 7 0;
#X connect 1 0 0 0;
#X connect 1 1 2 0;
#X connect 2 0 0 1;
#X connect 3 0 2 0;
#X connect 5 0 1 0;
#X connect 6 0 3 0;
#X restore 228 170 pd latencyline;
#X obj 204 29 route /TemperatureValue;
#X obj 204 123 route /Hardness;
#X obj 29 242 outlet;
#X obj 83 242 outlet;
#X obj 138 242 outlet;
#X obj 192 242 outlet;
#X connect 0 0 1 0;
#X connect 0 0 6 0;
#X connect 0 0 11 0;
#X connect 0 0 12 0;
#X connect 1 0 2 0;
#X connect 1 0 3 0;
#X connect 3 0 13 0;
#X connect 5 0 14 0;
#X connect 6 0 4 0;
#X connect 6 0 5 0;
#X connect 8 0 15 0;
#X connect 10 0 16 0;
#X connect 11 0 7 0;
#X connect 11 0 8 0;
#X connect 12 0 9 0;
#X connect 12 0 10 0;
#X restore 452 238 pd datatype;
#X obj 311 213 route /RElbowYaw;
#X obj 452 213 route /RElbowRoll;
#N canvas 609 127 954 800 datatype 0;
#X obj 7 6 inlet;
#X obj 7 30 route /PositionSensor;
#X floatatom 31 55 5 0 0 0 - - - 0;
#N canvas 1106 405 450 507 latencyline 0;
#X obj 18 114 line;
#X obj 18 40 t f b;
#X floatatom 50 87 5 0 0 0 - - - 0;
#X obj 66 60 * 1000;
#X floatatom 32 140 5 0 0 0 - - - 0;
#X obj 18 13 inlet;
#X obj 66 36 r latency;
#X obj 18 160 outlet;
#X connect 0 0 4 0;
#X connect 0 0 7 0;
#X connect 1 0 0 0;
#X connect 1 1 2 0;
#X connect 2 0 0 1;
#X connect 3 0 2 0;
#X connect 5 0 1 0;
#X connect 6 0 3 0;
#X restore 31 77 pd latencyline;
#X floatatom 30 149 5 0 0 0 - - - 0;
#N canvas 1106 405 450 507 latencyline 0;
#X obj 18 114 line;
#X obj 18 40 t f b;
#X floatatom 50 87 5 0 0 0 - - - 0;
#X obj 66 60 * 1000;
#X floatatom 32 140 5 0 0 0 - - - 0;
#X obj 18 13 inlet;
#X obj 66 36 r latency;
#X obj 18 160 outlet;
#X connect 0 0 4 0;
#X connect 0 0 7 0;
#X connect 1 0 0 0;
#X connect 1 1 2 0;
#X connect 2 0 0 1;
#X connect 3 0 2 0;
#X connect 5 0 1 0;
#X connect 6 0 3 0;
#X restore 30 171 pd latencyline;
#X obj 6 124 route /ElectricCurrent;
#X floatatom 228 54 5 0 0 0 - - - 0;
#N canvas 1106 405 450 507 latencyline 0;
#X obj 18 114 line;
#X obj 18 40 t f b;
#X floatatom 50 87 5 0 0 0 - - - 0;
#X obj 66 60 * 1000;
#X floatatom 32 140 5 0 0 0 - - - 0;
#X obj 18 13 inlet;
#X obj 66 36 r latency;
#X obj 18 160 outlet;
#X connect 0 0 4 0;
#X connect 0 0 7 0;
#X connect 1 0 0 0;
#X connect 1 1 2 0;
#X connect 2 0 0 1;
#X connect 3 0 2 0;
#X connect 5 0 1 0;
#X connect 6 0 3 0;
#X restore 228 76 pd latencyline;
#X floatatom 228 148 5 0 0 0 - - - 0;
#N canvas 1106 405 450 507 latencyline 0;
#X obj 18 114 line;
#X obj 18 40 t f b;
#X floatatom 50 87 5 0 0 0 - - - 0;
#X obj 66 60 * 1000;
#X floatatom 32 140 5 0 0 0 - - - 0;
#X obj 18 13 inlet;
#X obj 66 36 r latency;
#X obj 18 160 outlet;
#X connect 0 0 4 0;
#X connect 0 0 7 0;
#X connect 1 0 0 0;
#X connect 1 1 2 0;
#X connect 2 0 0 1;
#X connect 3 0 2 0;
#X connect 5 0 1 0;
#X connect 6 0 3 0;
#X restore 228 170 pd latencyline;
#X obj 204 29 route /TemperatureValue;
#X obj 204 123 route /Hardness;
#X obj 29 242 outlet;
#X obj 83 242 outlet;
#X obj 138 242 outlet;
#X obj 192 242 outlet;
#X connect 0 0 1 0;
#X connect 0 0 6 0;
#X connect 0 0 11 0;
#X connect 0 0 12 0;
#X connect 1 0 2 0;
#X connect 1 0 3 0;
#X connect 3 0 13 0;
#X connect 5 0 14 0;
#X connect 6 0 4 0;
#X connect 6 0 5 0;
#X connect 8 0 15 0;
#X connect 10 0 16 0;
#X connect 11 0 7 0;
#X connect 11 0 8 0;
#X connect 12 0 9 0;
#X connect 12 0 10 0;
#X restore 594 238 pd datatype;
#X obj 594 213 route /RWristYaw;
#N canvas 609 127 954 800 datatype 0;
#X obj 7 6 inlet;
#X obj 7 30 route /PositionSensor;
#X floatatom 31 55 5 0 0 0 - - - 0;
#N canvas 1106 405 450 507 latencyline 0;
#X obj 18 114 line;
#X obj 18 40 t f b;
#X floatatom 50 87 5 0 0 0 - - - 0;
#X obj 66 60 * 1000;
#X floatatom 32 140 5 0 0 0 - - - 0;
#X obj 18 13 inlet;
#X obj 66 36 r latency;
#X obj 18 160 outlet;
#X connect 0 0 4 0;
#X connect 0 0 7 0;
#X connect 1 0 0 0;
#X connect 1 1 2 0;
#X connect 2 0 0 1;
#X connect 3 0 2 0;
#X connect 5 0 1 0;
#X connect 6 0 3 0;
#X restore 31 77 pd latencyline;
#X floatatom 30 149 5 0 0 0 - - - 0;
#N canvas 1106 405 450 507 latencyline 0;
#X obj 18 114 line;
#X obj 18 40 t f b;
#X floatatom 50 87 5 0 0 0 - - - 0;
#X obj 66 60 * 1000;
#X floatatom 32 140 5 0 0 0 - - - 0;
#X obj 18 13 inlet;
#X obj 66 36 r latency;
#X obj 18 160 outlet;
#X connect 0 0 4 0;
#X connect 0 0 7 0;
#X connect 1 0 0 0;
#X connect 1 1 2 0;
#X connect 2 0 0 1;
#X connect 3 0 2 0;
#X connect 5 0 1 0;
#X connect 6 0 3 0;
#X restore 30 171 pd latencyline;
#X obj 6 124 route /ElectricCurrent;
#X floatatom 228 54 5 0 0 0 - - - 0;
#N canvas 1106 405 450 507 latencyline 0;
#X obj 18 114 line;
#X obj 18 40 t f b;
#X floatatom 50 87 5 0 0 0 - - - 0;
#X obj 66 60 * 1000;
#X floatatom 32 140 5 0 0 0 - - - 0;
#X obj 18 13 inlet;
#X obj 66 36 r latency;
#X obj 18 160 outlet;
#X connect 0 0 4 0;
#X connect 0 0 7 0;
#X connect 1 0 0 0;
#X connect 1 1 2 0;
#X connect 2 0 0 1;
#X connect 3 0 2 0;
#X connect 5 0 1 0;
#X connect 6 0 3 0;
#X restore 228 76 pd latencyline;
#X floatatom 228 148 5 0 0 0 - - - 0;
#N canvas 1106 405 450 507 latencyline 0;
#X obj 18 114 line;
#X obj 18 40 t f b;
#X floatatom 50 87 5 0 0 0 - - - 0;
#X obj 66 60 * 1000;
#X floatatom 32 140 5 0 0 0 - - - 0;
#X obj 18 13 inlet;
#X obj 66 36 r latency;
#X obj 18 160 outlet;
#X connect 0 0 4 0;
#X connect 0 0 7 0;
#X connect 1 0 0 0;
#X connect 1 1 2 0;
#X connect 2 0 0 1;
#X connect 3 0 2 0;
#X connect 5 0 1 0;
#X connect 6 0 3 0;
#X restore 228 170 pd latencyline;
#X obj 204 29 route /TemperatureValue;
#X obj 204 123 route /Hardness;
#X obj 29 242 outlet;
#X obj 83 242 outlet;
#X obj 138 242 outlet;
#X obj 192 242 outlet;
#X connect 0 0 1 0;
#X connect 0 0 6 0;
#X connect 0 0 11 0;
#X connect 0 0 12 0;
#X connect 1 0 2 0;
#X connect 1 0 3 0;
#X connect 3 0 13 0;
#X connect 5 0 14 0;
#X connect 6 0 4 0;
#X connect 6 0 5 0;
#X connect 8 0 15 0;
#X connect 10 0 16 0;
#X connect 11 0 7 0;
#X connect 11 0 8 0;
#X connect 12 0 9 0;
#X connect 12 0 10 0;
#X restore 7 372 pd datatype;
#N canvas 609 127 954 800 datatype 0;
#X obj 7 6 inlet;
#X obj 7 30 route /PositionSensor;
#X floatatom 31 55 5 0 0 0 - - - 0;
#N canvas 1106 405 450 507 latencyline 0;
#X obj 18 114 line;
#X obj 18 40 t f b;
#X floatatom 50 87 5 0 0 0 - - - 0;
#X obj 66 60 * 1000;
#X floatatom 32 140 5 0 0 0 - - - 0;
#X obj 18 13 inlet;
#X obj 66 36 r latency;
#X obj 18 160 outlet;
#X connect 0 0 4 0;
#X connect 0 0 7 0;
#X connect 1 0 0 0;
#X connect 1 1 2 0;
#X connect 2 0 0 1;
#X connect 3 0 2 0;
#X connect 5 0 1 0;
#X connect 6 0 3 0;
#X restore 31 77 pd latencyline;
#X floatatom 30 149 5 0 0 0 - - - 0;
#N canvas 1106 405 450 507 latencyline 0;
#X obj 18 114 line;
#X obj 18 40 t f b;
#X floatatom 50 87 5 0 0 0 - - - 0;
#X obj 66 60 * 1000;
#X floatatom 32 140 5 0 0 0 - - - 0;
#X obj 18 13 inlet;
#X obj 66 36 r latency;
#X obj 18 160 outlet;
#X connect 0 0 4 0;
#X connect 0 0 7 0;
#X connect 1 0 0 0;
#X connect 1 1 2 0;
#X connect 2 0 0 1;
#X connect 3 0 2 0;
#X connect 5 0 1 0;
#X connect 6 0 3 0;
#X restore 30 171 pd latencyline;
#X obj 6 124 route /ElectricCurrent;
#X floatatom 228 54 5 0 0 0 - - - 0;
#N canvas 1106 405 450 507 latencyline 0;
#X obj 18 114 line;
#X obj 18 40 t f b;
#X floatatom 50 87 5 0 0 0 - - - 0;
#X obj 66 60 * 1000;
#X floatatom 32 140 5 0 0 0 - - - 0;
#X obj 18 13 inlet;
#X obj 66 36 r latency;
#X obj 18 160 outlet;
#X connect 0 0 4 0;
#X connect 0 0 7 0;
#X connect 1 0 0 0;
#X connect 1 1 2 0;
#X connect 2 0 0 1;
#X connect 3 0 2 0;
#X connect 5 0 1 0;
#X connect 6 0 3 0;
#X restore 228 76 pd latencyline;
#X floatatom 228 148 5 0 0 0 - - - 0;
#N canvas 1106 405 450 507 latencyline 0;
#X obj 18 114 line;
#X obj 18 40 t f b;
#X floatatom 50 87 5 0 0 0 - - - 0;
#X obj 66 60 * 1000;
#X floatatom 32 140 5 0 0 0 - - - 0;
#X obj 18 13 inlet;
#X obj 66 36 r latency;
#X obj 18 160 outlet;
#X connect 0 0 4 0;
#X connect 0 0 7 0;
#X connect 1 0 0 0;
#X connect 1 1 2 0;
#X connect 2 0 0 1;
#X connect 3 0 2 0;
#X connect 5 0 1 0;
#X connect 6 0 3 0;
#X restore 228 170 pd latencyline;
#X obj 204 29 route /TemperatureValue;
#X obj 204 123 route /Hardness;
#X obj 29 242 outlet;
#X obj 83 242 outlet;
#X obj 138 242 outlet;
#X obj 192 242 outlet;
#X connect 0 0 1 0;
#X connect 0 0 6 0;
#X connect 0 0 11 0;
#X connect 0 0 12 0;
#X connect 1 0 2 0;
#X connect 1 0 3 0;
#X connect 3 0 13 0;
#X connect 5 0 14 0;
#X connect 6 0 4 0;
#X connect 6 0 5 0;
#X connect 8 0 15 0;
#X connect 10 0 16 0;
#X connect 11 0 7 0;
#X connect 11 0 8 0;
#X connect 12 0 9 0;
#X connect 12 0 10 0;
#X restore 157 372 pd datatype;
#N canvas 609 127 954 800 datatype 0;
#X obj 7 6 inlet;
#X obj 7 30 route /PositionSensor;
#X floatatom 31 55 5 0 0 0 - - - 0;
#N canvas 1106 405 450 507 latencyline 0;
#X obj 18 114 line;
#X obj 18 40 t f b;
#X floatatom 50 87 5 0 0 0 - - - 0;
#X obj 66 60 * 1000;
#X floatatom 32 140 5 0 0 0 - - - 0;
#X obj 18 13 inlet;
#X obj 66 36 r latency;
#X obj 18 160 outlet;
#X connect 0 0 4 0;
#X connect 0 0 7 0;
#X connect 1 0 0 0;
#X connect 1 1 2 0;
#X connect 2 0 0 1;
#X connect 3 0 2 0;
#X connect 5 0 1 0;
#X connect 6 0 3 0;
#X restore 31 77 pd latencyline;
#X floatatom 30 149 5 0 0 0 - - - 0;
#N canvas 1106 405 450 507 latencyline 0;
#X obj 18 114 line;
#X obj 18 40 t f b;
#X floatatom 50 87 5 0 0 0 - - - 0;
#X obj 66 60 * 1000;
#X floatatom 32 140 5 0 0 0 - - - 0;
#X obj 18 13 inlet;
#X obj 66 36 r latency;
#X obj 18 160 outlet;
#X connect 0 0 4 0;
#X connect 0 0 7 0;
#X connect 1 0 0 0;
#X connect 1 1 2 0;
#X connect 2 0 0 1;
#X connect 3 0 2 0;
#X connect 5 0 1 0;
#X connect 6 0 3 0;
#X restore 30 171 pd latencyline;
#X obj 6 124 route /ElectricCurrent;
#X floatatom 228 54 5 0 0 0 - - - 0;
#N canvas 1106 405 450 507 latencyline 0;
#X obj 18 114 line;
#X obj 18 40 t f b;
#X floatatom 50 87 5 0 0 0 - - - 0;
#X obj 66 60 * 1000;
#X floatatom 32 140 5 0 0 0 - - - 0;
#X obj 18 13 inlet;
#X obj 66 36 r latency;
#X obj 18 160 outlet;
#X connect 0 0 4 0;
#X connect 0 0 7 0;
#X connect 1 0 0 0;
#X connect 1 1 2 0;
#X connect 2 0 0 1;
#X connect 3 0 2 0;
#X connect 5 0 1 0;
#X connect 6 0 3 0;
#X restore 228 76 pd latencyline;
#X floatatom 228 148 5 0 0 0 - - - 0;
#N canvas 1106 405 450 507 latencyline 0;
#X obj 18 114 line;
#X obj 18 40 t f b;
#X floatatom 50 87 5 0 0 0 - - - 0;
#X obj 66 60 * 1000;
#X floatatom 32 140 5 0 0 0 - - - 0;
#X obj 18 13 inlet;
#X obj 66 36 r latency;
#X obj 18 160 outlet;
#X connect 0 0 4 0;
#X connect 0 0 7 0;
#X connect 1 0 0 0;
#X connect 1 1 2 0;
#X connect 2 0 0 1;
#X connect 3 0 2 0;
#X connect 5 0 1 0;
#X connect 6 0 3 0;
#X restore 228 170 pd latencyline;
#X obj 204 29 route /TemperatureValue;
#X obj 204 123 route /Hardness;
#X obj 29 242 outlet;
#X obj 83 242 outlet;
#X obj 138 242 outlet;
#X obj 192 242 outlet;
#X connect 0 0 1 0;
#X connect 0 0 6 0;
#X connect 0 0 11 0;
#X connect 0 0 12 0;
#X connect 1 0 2 0;
#X connect 1 0 3 0;
#X connect 3 0 13 0;
#X connect 5 0 14 0;
#X connect 6 0 4 0;
#X connect 6 0 5 0;
#X connect 8 0 15 0;
#X connect 10 0 16 0;
#X connect 11 0 7 0;
#X connect 11 0 8 0;
#X connect 12 0 9 0;
#X connect 12 0 10 0;
#X restore 312 372 pd datatype;
#N canvas 609 127 954 800 datatype 0;
#X obj 7 6 inlet;
#X obj 7 30 route /PositionSensor;
#X floatatom 31 55 5 0 0 0 - - - 0;
#N canvas 1106 405 450 507 latencyline 0;
#X obj 18 114 line;
#X obj 18 40 t f b;
#X floatatom 50 87 5 0 0 0 - - - 0;
#X obj 66 60 * 1000;
#X floatatom 32 140 5 0 0 0 - - - 0;
#X obj 18 13 inlet;
#X obj 66 36 r latency;
#X obj 18 160 outlet;
#X connect 0 0 4 0;
#X connect 0 0 7 0;
#X connect 1 0 0 0;
#X connect 1 1 2 0;
#X connect 2 0 0 1;
#X connect 3 0 2 0;
#X connect 5 0 1 0;
#X connect 6 0 3 0;
#X restore 31 77 pd latencyline;
#X floatatom 30 149 5 0 0 0 - - - 0;
#N canvas 1106 405 450 507 latencyline 0;
#X obj 18 114 line;
#X obj 18 40 t f b;
#X floatatom 50 87 5 0 0 0 - - - 0;
#X obj 66 60 * 1000;
#X floatatom 32 140 5 0 0 0 - - - 0;
#X obj 18 13 inlet;
#X obj 66 36 r latency;
#X obj 18 160 outlet;
#X connect 0 0 4 0;
#X connect 0 0 7 0;
#X connect 1 0 0 0;
#X connect 1 1 2 0;
#X connect 2 0 0 1;
#X connect 3 0 2 0;
#X connect 5 0 1 0;
#X connect 6 0 3 0;
#X restore 30 171 pd latencyline;
#X obj 6 124 route /ElectricCurrent;
#X floatatom 228 54 5 0 0 0 - - - 0;
#N canvas 1106 405 450 507 latencyline 0;
#X obj 18 114 line;
#X obj 18 40 t f b;
#X floatatom 50 87 5 0 0 0 - - - 0;
#X obj 66 60 * 1000;
#X floatatom 32 140 5 0 0 0 - - - 0;
#X obj 18 13 inlet;
#X obj 66 36 r latency;
#X obj 18 160 outlet;
#X connect 0 0 4 0;
#X connect 0 0 7 0;
#X connect 1 0 0 0;
#X connect 1 1 2 0;
#X connect 2 0 0 1;
#X connect 3 0 2 0;
#X connect 5 0 1 0;
#X connect 6 0 3 0;
#X restore 228 76 pd latencyline;
#X floatatom 228 148 5 0 0 0 - - - 0;
#N canvas 1106 405 450 507 latencyline 0;
#X obj 18 114 line;
#X obj 18 40 t f b;
#X floatatom 50 87 5 0 0 0 - - - 0;
#X obj 66 60 * 1000;
#X floatatom 32 140 5 0 0 0 - - - 0;
#X obj 18 13 inlet;
#X obj 66 36 r latency;
#X obj 18 160 outlet;
#X connect 0 0 4 0;
#X connect 0 0 7 0;
#X connect 1 0 0 0;
#X connect 1 1 2 0;
#X connect 2 0 0 1;
#X connect 3 0 2 0;
#X connect 5 0 1 0;
#X connect 6 0 3 0;
#X restore 228 170 pd latencyline;
#X obj 204 29 route /TemperatureValue;
#X obj 204 123 route /Hardness;
#X obj 29 242 outlet;
#X obj 83 242 outlet;
#X obj 138 242 outlet;
#X obj 192 242 outlet;
#X connect 0 0 1 0;
#X connect 0 0 6 0;
#X connect 0 0 11 0;
#X connect 0 0 12 0;
#X connect 1 0 2 0;
#X connect 1 0 3 0;
#X connect 3 0 13 0;
#X connect 5 0 14 0;
#X connect 6 0 4 0;
#X connect 6 0 5 0;
#X connect 8 0 15 0;
#X connect 10 0 16 0;
#X connect 11 0 7 0;
#X connect 11 0 8 0;
#X connect 12 0 9 0;
#X connect 12 0 10 0;
#X restore 453 372 pd datatype;
#N canvas 609 127 954 800 datatype 0;
#X obj 7 6 inlet;
#X obj 7 30 route /PositionSensor;
#X floatatom 31 55 5 0 0 0 - - - 0;
#N canvas 1106 405 450 507 latencyline 0;
#X obj 18 114 line;
#X obj 18 40 t f b;
#X floatatom 50 87 5 0 0 0 - - - 0;
#X obj 66 60 * 1000;
#X floatatom 32 140 5 0 0 0 - - - 0;
#X obj 18 13 inlet;
#X obj 66 36 r latency;
#X obj 18 160 outlet;
#X connect 0 0 4 0;
#X connect 0 0 7 0;
#X connect 1 0 0 0;
#X connect 1 1 2 0;
#X connect 2 0 0 1;
#X connect 3 0 2 0;
#X connect 5 0 1 0;
#X connect 6 0 3 0;
#X restore 31 77 pd latencyline;
#X floatatom 30 149 5 0 0 0 - - - 0;
#N canvas 1106 405 450 507 latencyline 0;
#X obj 18 114 line;
#X obj 18 40 t f b;
#X floatatom 50 87 5 0 0 0 - - - 0;
#X obj 66 60 * 1000;
#X floatatom 32 140 5 0 0 0 - - - 0;
#X obj 18 13 inlet;
#X obj 66 36 r latency;
#X obj 18 160 outlet;
#X connect 0 0 4 0;
#X connect 0 0 7 0;
#X connect 1 0 0 0;
#X connect 1 1 2 0;
#X connect 2 0 0 1;
#X connect 3 0 2 0;
#X connect 5 0 1 0;
#X connect 6 0 3 0;
#X restore 30 171 pd latencyline;
#X obj 6 124 route /ElectricCurrent;
#X floatatom 228 54 5 0 0 0 - - - 0;
#N canvas 1106 405 450 507 latencyline 0;
#X obj 18 114 line;
#X obj 18 40 t f b;
#X floatatom 50 87 5 0 0 0 - - - 0;
#X obj 66 60 * 1000;
#X floatatom 32 140 5 0 0 0 - - - 0;
#X obj 18 13 inlet;
#X obj 66 36 r latency;
#X obj 18 160 outlet;
#X connect 0 0 4 0;
#X connect 0 0 7 0;
#X connect 1 0 0 0;
#X connect 1 1 2 0;
#X connect 2 0 0 1;
#X connect 3 0 2 0;
#X connect 5 0 1 0;
#X connect 6 0 3 0;
#X restore 228 76 pd latencyline;
#X floatatom 228 148 5 0 0 0 - - - 0;
#N canvas 1106 405 450 507 latencyline 0;
#X obj 18 114 line;
#X obj 18 40 t f b;
#X floatatom 50 87 5 0 0 0 - - - 0;
#X obj 66 60 * 1000;
#X floatatom 32 140 5 0 0 0 - - - 0;
#X obj 18 13 inlet;
#X obj 66 36 r latency;
#X obj 18 160 outlet;
#X connect 0 0 4 0;
#X connect 0 0 7 0;
#X connect 1 0 0 0;
#X connect 1 1 2 0;
#X connect 2 0 0 1;
#X connect 3 0 2 0;
#X connect 5 0 1 0;
#X connect 6 0 3 0;
#X restore 228 170 pd latencyline;
#X obj 204 29 route /TemperatureValue;
#X obj 204 123 route /Hardness;
#X obj 29 242 outlet;
#X obj 83 242 outlet;
#X obj 138 242 outlet;
#X obj 192 242 outlet;
#X connect 0 0 1 0;
#X connect 0 0 6 0;
#X connect 0 0 11 0;
#X connect 0 0 12 0;
#X connect 1 0 2 0;
#X connect 1 0 3 0;
#X connect 3 0 13 0;
#X connect 5 0 14 0;
#X connect 6 0 4 0;
#X connect 6 0 5 0;
#X connect 8 0 15 0;
#X connect 10 0 16 0;
#X connect 11 0 7 0;
#X connect 11 0 8 0;
#X connect 12 0 9 0;
#X connect 12 0 10 0;
#X restore 595 372 pd datatype;
#X obj 7 347 route /LShoulderRoll;
#X obj 157 347 route /LShoulderPitch;
#X obj 312 347 route /LElbowYaw;
#X obj 453 347 route /LElbowRoll;
#X obj 595 347 route /LWristYaw;
#X text 9 472 DataType Outlets:;
#X text 9 489 1 PositionSensor;
#X text 9 504 2 ElectricCurrent;
#X text 9 519 3 TemperatureValue;
#X text 9 534 4 Hardness;
#X obj 16 264 hsl 128 15 -1 1 0 0 empty empty empty -2 -8 0 10 #fcfcfc #000000 #000000 0 1;
#X obj 159 264 hsl 128 15 -1 1 0 0 empty empty empty -2 -8 0 10 #fcfcfc #000000 #000000 0 1;
#X obj 314 263 hsl 128 15 -1 1 0 0 empty empty empty -2 -8 0 10 #fcfcfc #000000 #000000 0 1;
#X obj 455 263 hsl 128 15 -1 1 0 0 empty empty empty -2 -8 0 10 #fcfcfc #000000 #000000 0 1;
#X obj 597 263 hsl 128 15 -1 1 0 0 empty empty empty -2 -8 0 10 #fcfcfc #000000 #000000 0 1;
#X obj 10 401 hsl 128 15 -1 1 0 0 empty empty empty -2 -8 0 10 #fcfcfc #000000 #000000 0 1;
#X obj 160 401 hsl 128 15 -1 1 0 0 empty empty empty -2 -8 0 10 #fcfcfc #000000 #000000 0 1;
#X obj 315 400 hsl 128 15 -1 1 0 0 empty empty empty -2 -8 0 10 #fcfcfc #000000 #000000 0 1;
#X obj 456 399 hsl 128 15 -1 1 0 0 empty empty empty -2 -8 0 10 #fcfcfc #000000 #000000 0 1;
#X obj 598 400 hsl 128 15 -1 1 0 0 empty empty empty -2 -8 0 10 #fcfcfc #000000 #000000 0 1;
#X obj 204 137 hsl 128 15 -1 1 0 0 empty empty empty -2 -8 0 10 #fcfcfc #000000 #000000 0 1;
#X obj 359 136 hsl 128 15 -1 1 0 0 empty empty empty -2 -8 0 10 #fcfcfc #000000 #000000 0 1;
#X floatatom 201 154 5 0 0 0 - - - 0;
#X floatatom 356 153 5 0 0 0 - - - 0;
#X floatatom 13 281 5 0 0 0 - - - 0;
#X floatatom 156 281 5 0 0 0 - - - 0;
#X floatatom 7 418 5 0 0 0 - - - 0;
#X floatatom 157 418 5 0 0 0 - - - 0;
#X floatatom 312 417 5 0 0 0 - - - 0;
#X floatatom 311 280 5 0 0 0 - - - 0;
#X floatatom 452 280 5 0 0 0 - - - 0;
#X floatatom 595 280 5 0 0 0 - - - 0;
#X floatatom 453 416 5 0 0 0 - - - 0;
#X floatatom 596 417 5 0 0 0 - - - 0;
#X obj 13 305 s RShoulderRoll;
#X obj 156 304 s RShoulderPitch;
#X obj 311 303 s RElbowYaw;
#X obj 452 303 s RElbowRoll;
#X obj 595 303 s RWristYaw;
#X obj 7 441 s LShoulderRoll;
#X obj 157 441 s LShoulderPitch;
#X obj 312 440 s LElbowYaw;
#X obj 453 439 s LElbowRoll;
#X obj 596 440 s LWristYaw;
#X obj 201 177 s HeadPitch;
#X obj 356 176 s HeadYaw;
#X connect 0 0 1 0;
#X connect 1 0 4 0;
#X connect 1 0 5 0;
#X connect 1 0 6 0;
#X connect 2 0 3 0;
#X connect 4 0 2 0;
#X connect 4 0 12 0;
#X connect 4 0 15 0;
#X connect 4 0 18 0;
#X connect 4 0 19 0;
#X connect 4 0 22 0;
#X connect 4 0 23 0;
#X connect 4 0 25 0;
#X connect 4 0 31 0;
#X connect 4 0 32 0;
#X connect 4 0 33 0;
#X connect 4 0 34 0;
#X connect 4 0 35 0;
#X connect 5 0 8 0;
#X connect 5 0 10 0;
#X connect 6 0 9 0;
#X connect 6 0 11 0;
#X connect 7 0 0 0;
#X connect 12 0 13 0;
#X connect 13 0 51 0;
#X connect 14 0 52 0;
#X connect 15 0 14 0;
#X connect 16 0 41 0;
#X connect 17 0 42 0;
#X connect 18 0 16 0;
#X connect 19 0 17 0;
#X connect 20 0 43 0;
#X connect 21 0 44 0;
#X connect 22 0 20 0;
#X connect 23 0 21 0;
#X connect 24 0 45 0;
#X connect 25 0 24 0;
#X connect 26 0 46 0;
#X connect 27 0 47 0;
#X connect 28 0 48 0;
#X connect 29 0 49 0;
#X connect 30 0 50 0;
#X connect 31 0 26 0;
#X connect 32 0 27 0;
#X connect 33 0 28 0;
#X connect 34 0 29 0;
#X connect 35 0 30 0;
#X connect 41 0 55 0;
#X connect 42 0 56 0;
#X connect 43 0 60 0;
#X connect 44 0 61 0;
#X connect 45 0 62 0;
#X connect 46 0 57 0;
#X connect 47 0 58 0;
#X connect 48 0 59 0;
#X connect 49 0 63 0;
#X connect 50 0 64 0;
#X connect 51 0 53 0;
#X connect 52 0 54 0;
#X connect 53 0 75 0;
#X connect 54 0 76 0;
#X connect 55 0 65 0;
#X connect 56 0 66 0;
#X connect 57 0 70 0;
#X connect 58 0 71 0;
#X connect 59 0 72 0;
#X connect 60 0 67 0;
#X connect 61 0 68 0;
#X connect 62 0 69 0;
#X connect 63 0 73 0;
#X connect 64 0 74 0;
